<svg width="56" height="56" viewBox="0 0 56 56" fill="none" xmlns="http://www.w3.org/2000/svg">
<g clip-path="url(#clip0_0_351)">
<rect x="0.5" y="0.5" width="55" height="55" rx="27.5" stroke="#584D62"/>
<path d="M34.0602 32.26C34.0602 33.276 33.8122 34.156 33.3162 34.9C32.8282 35.644 32.1442 36.22 31.2642 36.628C30.3842 37.036 29.3642 37.24 28.2042 37.24C26.5082 37.24 25.1962 36.892 24.2682 36.196C23.3482 35.5 22.8882 34.64 22.8882 33.616C22.8882 33.032 23.0402 32.56 23.3442 32.2C23.6482 31.832 24.0162 31.648 24.4482 31.648C24.8162 31.648 25.1322 31.792 25.3962 32.08C25.6602 32.36 25.7922 32.724 25.7922 33.172V34.648C25.7922 35.352 26.0042 35.936 26.4282 36.4C26.8522 36.856 27.4642 37.084 28.2642 37.084C29.0882 37.084 29.7442 36.756 30.2322 36.1C30.7202 35.444 30.9642 34.356 30.9642 32.836C30.9642 31.284 30.6642 30.124 30.0642 29.356C29.4642 28.588 28.6842 28.204 27.7242 28.204H27.0282C26.9162 28.204 26.8602 28.164 26.8602 28.084C26.8602 28.044 26.9162 27.968 27.0282 27.856L31.7202 22.804H24.8442C24.5802 22.804 24.4082 22.94 24.3282 23.212L23.8122 25.012C23.7962 25.084 23.7562 25.12 23.6922 25.12C23.6202 25.12 23.5922 25.072 23.6082 24.976L24.1482 20.572C24.1802 20.324 24.2882 20.2 24.4722 20.2H34.2762C34.3882 20.2 34.4442 20.248 34.4442 20.344C34.4442 20.416 34.3922 20.508 34.2882 20.62L27.2082 27.94H27.7962C29.7162 27.94 31.2402 28.288 32.3682 28.984C33.4962 29.68 34.0602 30.772 34.0602 32.26Z" fill="#24053E"/>
</g>
<defs>
<clipPath id="clip0_0_351">
<rect width="56" height="56" fill="white"/>
</clipPath>
</defs>
</svg>
