<svg width="56" height="56" viewBox="0 0 56 56" fill="none" xmlns="http://www.w3.org/2000/svg">
<g clip-path="url(#clip0_0_345)">
<rect x="0.5" y="0.5" width="55" height="55" rx="27.5" stroke="#584D62"/>
<path d="M22.516 35.704C22.516 34.568 23 33.736 23.968 33.208L26.248 31.732C27.688 30.78 28.76 29.72 29.464 28.552C30.176 27.376 30.532 25.992 30.532 24.4C30.532 22.856 30.292 21.76 29.812 21.112C29.34 20.456 28.788 20.128 28.156 20.128C27.396 20.128 26.82 20.356 26.428 20.812C26.044 21.26 25.852 21.876 25.852 22.66V24.22C25.852 24.78 25.7 25.22 25.396 25.54C25.1 25.852 24.74 26.008 24.316 26.008C23.852 26.008 23.488 25.876 23.224 25.612C22.96 25.34 22.828 24.956 22.828 24.46C22.828 23.7 23.052 22.976 23.5 22.288C23.956 21.6 24.628 21.04 25.516 20.608C26.404 20.176 27.504 19.96 28.816 19.96C30.464 19.96 31.736 20.36 32.632 21.16C33.536 21.96 33.988 22.98 33.988 24.22C33.988 25.06 33.78 25.852 33.364 26.596C32.956 27.34 32.296 28.088 31.384 28.84C30.472 29.592 29.264 30.408 27.76 31.288L24.904 32.848C25.352 32.736 25.848 32.68 26.392 32.68C27.04 32.68 27.704 32.804 28.384 33.052C29.064 33.292 29.732 33.532 30.388 33.772C31.044 34.012 31.656 34.132 32.224 34.132C32.832 34.132 33.3 34.004 33.628 33.748C33.964 33.484 34.236 33.028 34.444 32.38C34.46 32.308 34.488 32.28 34.528 32.296C34.56 32.304 34.576 32.336 34.576 32.392C34.44 33.632 34.212 34.604 33.892 35.308C33.572 36.004 33.168 36.496 32.68 36.784C32.192 37.064 31.636 37.204 31.012 37.204C30.468 37.204 29.988 37.108 29.572 36.916C29.156 36.724 28.756 36.384 28.372 35.896C27.996 35.408 27.588 34.724 27.148 33.844C26.86 33.468 26.628 33.208 26.452 33.064C26.284 32.92 26.132 32.848 25.996 32.848C25.788 32.848 25.624 32.968 25.504 33.208C25.384 33.448 25.312 33.896 25.288 34.552C25.232 35.6 25.056 36.3 24.76 36.652C24.464 37.004 24.088 37.18 23.632 37.18C23.288 37.18 23.016 37.044 22.816 36.772C22.616 36.5 22.516 36.144 22.516 35.704Z" fill="#24053E"/>
</g>
<defs>
<clipPath id="clip0_0_345">
<rect width="56" height="56" fill="white"/>
</clipPath>
</defs>
</svg>
