<svg width="56" height="56" viewBox="0 0 56 56" fill="none" xmlns="http://www.w3.org/2000/svg">
<g clip-path="url(#clip0_0_339)">
<rect x="0.5" y="0.5" width="55" height="55" rx="27.5" stroke="#584D62"/>
<path d="M24.3752 21.04C24.2792 21.04 24.2312 21 24.2312 20.92C24.2312 20.856 24.2792 20.824 24.3752 20.824L26.0432 20.788C26.9952 20.788 27.7272 20.72 28.2392 20.584C28.7592 20.448 29.1672 20.168 29.4632 19.744C29.5272 19.632 29.5872 19.576 29.6432 19.576C29.7312 19.576 29.7752 19.636 29.7752 19.756V35.8C29.7752 36.232 29.9752 36.488 30.3752 36.568L31.8752 36.808C31.9712 36.832 32.0192 36.864 32.0192 36.904C32.0192 36.968 31.9712 37 31.8752 37H24.2552C24.1512 37 24.0992 36.964 24.0992 36.892C24.0992 36.852 24.1552 36.82 24.2672 36.796L25.7312 36.568C25.9312 36.52 26.0952 36.44 26.2232 36.328C26.3512 36.216 26.4152 36.044 26.4152 35.812V21.508C26.4152 21.212 26.2952 21.064 26.0552 21.064L24.3752 21.04Z" fill="#24053E"/>
</g>
<defs>
<clipPath id="clip0_0_339">
<rect width="56" height="56" fill="white"/>
</clipPath>
</defs>
</svg>
